<svg xmlns="http://www.w3.org/2000/svg" version="1.1" xmlns:xlink="http://www.w3.org/1999/xlink" xmlns:svgjs="http://svgjs.dev/svgjs" width="1500" height="382" viewBox="0 0 1500 382"><g transform="matrix(1,0,0,1,-0.9084522071641459,0.02512554234323261)"><svg viewBox="0 0 396 101" data-background-color="#dedede" preserveAspectRatio="xMidYMid meet" height="382" width="1500" xmlns="http://www.w3.org/2000/svg" xmlns:xlink="http://www.w3.org/1999/xlink"><g id="tight-bounds" transform="matrix(1,0,0,1,0.24008861730862918,-0.006478462693593201)"><svg viewBox="0 0 395.52 101.01312160347018" height="101.01312160347018" width="395.52"><g><svg viewBox="0 0 395.52 101.01312160347018" height="101.01312160347018" width="395.52"><g><svg viewBox="0 0 395.52 101.01312160347018" height="101.01312160347018" width="395.52"><g id="textblocktransform"><svg viewBox="0 0 395.52 101.01312160347018" height="101.01312160347018" width="395.52" id="textblock"><g><svg viewBox="0 0 395.52 101.01312160347018" height="101.01312160347018" width="395.52"><path d="M394.594 21.665C392.735 11.18 387.435 8.265 387.435 8.265 371.165-2.534 350.86-0.207 332.619 1.345 300.414 1.408 268.339 3.715 236.208 4.952 168.767 5.141 100.749 2.037 33.643 9.691 27.339 12.04-6.54 10.153 1.121 23.007 3.129 28.355 10.456 34.289 10.232 39.197 11.236 40.056 12.631 38.085 13.226 39.322 15.309 42.657 18.711 41.084 21.501 43.055 17.614 48.319 20.403 52.701 23.062 57.294 18.377 58.489 12.371 57.923 9.675 61.886 9.396 64.759 7.89 64.214 6.235 64.088 5.026 64.004 2.59 64.319 2.999 65.221 4.394 68.303-1.594 70.086 2.162 73.105-0.422 76.377 3.948 79.208 3.353 82.752 3.278 83.465 3.687 84.073 4.338 84.241 7.22 85.142 3.018 86.904 3.464 88.812 33.029 101.856 65.104 92.838 95.394 98.836 103.259 94.642 97.346 100.325 100.489 99.444 102.943 98.417 104.728 102.673 107.499 100.262 107.927 99.57 107.276 97.934 108.8 98.249 109.6 98.417 110.307 98.375 110.418 97.41 110.586 95.963 109.117 96.865 108.726 96.11 112.947 92.293 111.906 101.373 115.866 100.996 115.68 99.884 114.528 98.291 116.889 98.5 119.232 96.907 119.306 95.586 121.389 99.171 121.463 99.947 121.835 100.493 122.43 100.87 128.938 96.97 135.409 102.254 142.233 100.493 146.417 98.563 150.433 101.541 154.672 100.807 156.16 100.22 157.666 99.171 159.098 100.933 176.632 101.31 195.319 99.738 211.943 100.996 256.364 98.647 303.836 101.96 350.674 98.857 361.719 97.662 373.192 95.963 383.958 94.6 383.958 94.6 392.679 90.867 392.679 74.091S394.538 59.412 394.817 46.054C395.096 32.696 396.398 32.151 394.538 21.665Z" opacity="1" fill="#000000" data-fill-palette-color="tertiary"></path><g transform="matrix(1,0,0,1,55.76832,26.230666666666668)"><svg width="283.98335999999995" viewBox="3.25 -37.6 222.83 38.1" height="48.55178827013685" data-palette-color="#dedede"><path d="M18.9-37.6L18.9-37.6Q21.4-37.6 23.73-36.77 26.05-35.95 27.9-34.55 29.75-33.15 30.95-31.3 32.15-29.45 32.45-27.35L32.45-27.35Q32.55-26.9 32.48-26.75 32.4-26.6 32.1-26.6L32.1-26.6 28.35-26.3Q28.1-26.25 28-26.4 27.9-26.55 27.85-26.8L27.85-26.8Q27.15-30 24.83-31.98 22.5-33.95 19.05-33.95L19.05-33.95Q13.85-33.95 11.05-30.1 8.25-26.25 8.25-18.5L8.25-18.5Q8.25-11 11-7.15 13.75-3.3 19.3-3.3L19.3-3.3Q22.85-3.3 25.23-5 27.6-6.7 29.05-10.45L29.05-10.45Q29.2-10.75 29.65-10.65L29.65-10.65 32.6-9.95Q32.75-9.9 32.85-9.75 32.95-9.6 32.85-9.25L32.85-9.25Q32.45-7.8 31.63-6.4 30.8-5 29.6-3.78 28.4-2.55 26.8-1.58 25.2-0.6 23.28-0.05 21.35 0.5 19.1 0.5L19.1 0.5Q14.15 0.5 10.58-1.8 7-4.1 5.13-8.4 3.25-12.7 3.25-18.6L3.25-18.6Q3.25-24.5 5.13-28.78 7-33.05 10.53-35.33 14.05-37.6 18.9-37.6L18.9-37.6ZM39.9 0L39.9 0Q39.25 0 39.25-0.65L39.25-0.65 39.25-36.45Q39.25-37.1 39.8-37.1L39.8-37.1 42.75-37.1Q43.3-37.1 43.3-36.5L43.3-36.5 43.3-23.15Q43.3-22.9 43.4-22.85 43.5-22.8 43.75-23L43.75-23Q45.5-24.35 46.97-25.25 48.45-26.15 49.87-26.58 51.3-27 53-27L53-27Q56.9-27 58.95-24.93 61-22.85 61-19.4L61-19.4 61-0.8Q61 0 60.25 0L60.25 0 57.45 0Q57.1 0 56.95-0.18 56.8-0.35 56.8-0.65L56.8-0.65 56.8-18.5Q56.8-20.95 55.55-22.33 54.3-23.7 51.6-23.7L51.6-23.7Q50.15-23.7 48.87-23.23 47.6-22.75 46.3-21.88 45-21 43.45-19.65L43.45-19.65 43.45-0.75Q43.45 0 42.65 0L42.65 0 39.9 0ZM77.4-2.8L77.4-2.8Q79.55-2.8 81.52-3.98 83.5-5.15 85.45-7.15L85.45-7.15 85.45-25.75Q85.45-26.5 86.25-26.5L86.25-26.5 89-26.5Q89.7-26.5 89.7-25.8L89.7-25.8 89.6-0.65Q89.6 0 89.05 0L89.05 0 86.15 0Q85.6 0 85.6-0.55L85.6-0.55 85.6-3.5Q85.6-3.75 85.5-3.8 85.4-3.85 85.15-3.65L85.15-3.65Q82.4-1.3 80.27-0.4 78.15 0.5 76.05 0.5L76.05 0.5Q73.75 0.5 71.95-0.45 70.15-1.4 69.1-3.13 68.05-4.85 68.05-7.15L68.05-7.15 68.05-25.7Q68.05-26.5 68.8-26.5L68.8-26.5 71.6-26.5Q72.25-26.5 72.25-25.8L72.25-25.8 72.25-8.25Q72.25-5.8 73.62-4.3 75-2.8 77.4-2.8L77.4-2.8ZM101.59-36.45L101.59-0.85Q101.59-0.35 101.39-0.18 101.19 0 100.69 0L100.69 0 98.09 0Q97.34 0 97.34-0.7L97.34-0.7 97.39-36.4Q97.39-37.1 97.99-37.1L97.99-37.1 100.99-37.1Q101.59-37.1 101.59-36.45L101.59-36.45ZM121.39-14.45L121.39-12.25Q121.39-11.55 120.54-11.55L120.54-11.55 109.19-11.55Q108.84-11.55 108.69-11.68 108.54-11.8 108.54-12.15L108.54-12.15 108.54-14.35Q108.54-14.9 108.99-14.9L108.99-14.9 120.89-14.95Q121.39-14.95 121.39-14.45L121.39-14.45ZM143.39-37.6L143.39-37.6Q145.89-37.6 148.21-36.77 150.54-35.95 152.39-34.55 154.24-33.15 155.44-31.3 156.64-29.45 156.94-27.35L156.94-27.35Q157.04-26.9 156.96-26.75 156.89-26.6 156.59-26.6L156.59-26.6 152.84-26.3Q152.59-26.25 152.49-26.4 152.39-26.55 152.34-26.8L152.34-26.8Q151.64-30 149.31-31.98 146.99-33.95 143.54-33.95L143.54-33.95Q138.34-33.95 135.54-30.1 132.74-26.25 132.74-18.5L132.74-18.5Q132.74-11 135.49-7.15 138.24-3.3 143.79-3.3L143.79-3.3Q147.34-3.3 149.71-5 152.09-6.7 153.54-10.45L153.54-10.45Q153.69-10.75 154.14-10.65L154.14-10.65 157.09-9.95Q157.24-9.9 157.34-9.75 157.44-9.6 157.34-9.25L157.34-9.25Q156.94-7.8 156.11-6.4 155.29-5 154.09-3.78 152.89-2.55 151.29-1.58 149.69-0.6 147.76-0.05 145.84 0.5 143.59 0.5L143.59 0.5Q138.64 0.5 135.06-1.8 131.49-4.1 129.61-8.4 127.74-12.7 127.74-18.6L127.74-18.6Q127.74-24.5 129.61-28.78 131.49-33.05 135.01-35.33 138.54-37.6 143.39-37.6L143.39-37.6ZM164.39 0L164.39 0Q163.74 0 163.74-0.65L163.74-0.65 163.74-36.45Q163.74-37.1 164.29-37.1L164.29-37.1 167.24-37.1Q167.79-37.1 167.79-36.5L167.79-36.5 167.79-23.15Q167.79-22.9 167.89-22.85 167.99-22.8 168.24-23L168.24-23Q169.99-24.35 171.46-25.25 172.94-26.15 174.36-26.58 175.79-27 177.49-27L177.49-27Q181.39-27 183.44-24.93 185.49-22.85 185.49-19.4L185.49-19.4 185.49-0.8Q185.49 0 184.74 0L184.74 0 181.94 0Q181.59 0 181.44-0.18 181.29-0.35 181.29-0.65L181.29-0.65 181.29-18.5Q181.29-20.95 180.04-22.33 178.79-23.7 176.09-23.7L176.09-23.7Q174.64-23.7 173.36-23.23 172.09-22.75 170.79-21.88 169.49-21 167.94-19.65L167.94-19.65 167.94-0.75Q167.94 0 167.14 0L167.14 0 164.39 0ZM201.88-2.8L201.88-2.8Q204.03-2.8 206.01-3.98 207.98-5.15 209.93-7.15L209.93-7.15 209.93-25.75Q209.93-26.5 210.73-26.5L210.73-26.5 213.48-26.5Q214.18-26.5 214.18-25.8L214.18-25.8 214.08-0.65Q214.08 0 213.53 0L213.53 0 210.63 0Q210.08 0 210.08-0.55L210.08-0.55 210.08-3.5Q210.08-3.75 209.98-3.8 209.88-3.85 209.63-3.65L209.63-3.65Q206.88-1.3 204.76-0.4 202.63 0.5 200.53 0.5L200.53 0.5Q198.23 0.5 196.43-0.45 194.63-1.4 193.58-3.13 192.53-4.85 192.53-7.15L192.53-7.15 192.53-25.7Q192.53-26.5 193.28-26.5L193.28-26.5 196.08-26.5Q196.73-26.5 196.73-25.8L196.73-25.8 196.73-8.25Q196.73-5.8 198.11-4.3 199.48-2.8 201.88-2.8L201.88-2.8ZM226.08-36.45L226.08-0.85Q226.08-0.35 225.88-0.18 225.68 0 225.18 0L225.18 0 222.58 0Q221.83 0 221.83-0.7L221.83-0.7 221.88-36.4Q221.88-37.1 222.48-37.1L222.48-37.1 225.48-37.1Q226.08-37.1 226.08-36.45L226.08-36.45Z" opacity="1" transform="matrix(1,0,0,1,0,0)" fill="#dedede" class="wordmark-text-0" data-fill-palette-color="quaternary" id="text-0"></path></svg></g></svg></g></svg></g></svg></g><g></g></svg></g><defs></defs></svg><rect width="395.52" height="101.01312160347018" fill="none" stroke="none" visibility="hidden"></rect></g></svg></g></svg>