<svg xmlns="http://www.w3.org/2000/svg" version="1.1" xmlns:xlink="http://www.w3.org/1999/xlink" xmlns:svgjs="http://svgjs.dev/svgjs" width="1500" height="1268" viewBox="0 0 1500 1268"><g transform="matrix(1,0,0,1,0.13696733323217813,0.513360323886559)"><svg viewBox="0 0 292 247" data-background-color="#ffffff" preserveAspectRatio="xMidYMid meet" height="1268" width="1500" xmlns="http://www.w3.org/2000/svg" xmlns:xlink="http://www.w3.org/1999/xlink"><g id="tight-bounds" transform="matrix(1,0,0,1,-0.02666297420253727,-0.09999999999999432)"><svg viewBox="0 0 292.0533259484051 247.2" height="247.2" width="292.0533259484051"><g><svg viewBox="0 0 395.52 334.7763415550788" height="247.2" width="292.0533259484051"><g transform="matrix(1,0,0,1,0,277.4453703841978)"><svg viewBox="0 0 395.52 57.33097117088098" height="57.33097117088098" width="395.52"><g id="textblocktransform"><svg viewBox="0 0 395.52 57.33097117088098" height="57.33097117088098" width="395.52" id="textblock"><g><svg viewBox="0 0 395.52 57.33097117088098" height="57.33097117088098" width="395.52"><g transform="matrix(1,0,0,1,0,0)"><svg width="395.52" viewBox="1.37 -42.19 303.15 43.949999999999996" height="57.33097117088098" data-palette-color="#001f3f"><path d="M32.79-26.61L32.79-26.61 31.35-25.66Q30.03-27.61 27.92-28.75 25.81-29.88 23.34-29.88L23.34-29.88Q19.34-29.88 16.5-27.05 13.67-24.22 13.67-20.21 13.67-16.21 16.5-13.38 19.34-10.55 23.34-10.55L23.34-10.55Q25.81-10.55 27.92-11.69 30.03-12.84 31.35-14.79L31.35-14.79 32.76-13.77Q31.2-11.47 28.71-10.13 26.22-8.79 23.34-8.79L23.34-8.79Q21.02-8.79 18.91-9.69 16.8-10.6 15.26-12.13 13.72-13.67 12.82-15.78 11.91-17.9 11.91-20.21 11.91-22.53 12.82-24.65 13.72-26.76 15.26-28.3 16.8-29.83 18.91-30.74 21.02-31.64 23.34-31.64L23.34-31.64Q26.25-31.64 28.74-30.29 31.23-28.93 32.79-26.61ZM35.69-28.61L35.69-28.61 34.23-27.66Q32.42-30.3 29.55-31.85 26.68-33.4 23.34-33.4L23.34-33.4Q19.75-33.4 16.72-31.63 13.7-29.86 11.93-26.83 10.16-23.8 10.16-20.21 10.16-16.63 11.93-13.6 13.7-10.57 16.72-8.8 19.75-7.03 23.34-7.03L23.34-7.03Q26.68-7.03 29.57-8.59 32.45-10.16 34.25-12.82L34.25-12.82 35.69-11.82Q33.64-8.79 30.38-7.03 27.12-5.27 23.34-5.27L23.34-5.27Q19.29-5.27 15.84-7.28 12.4-9.28 10.4-12.72 8.4-16.16 8.4-20.21 8.4-24.27 10.4-27.71 12.4-31.15 15.84-33.15 19.29-35.16 23.34-35.16L23.34-35.16Q27.12-35.16 30.38-33.4 33.64-31.64 35.69-28.61ZM38.62-30.57L38.62-30.57 37.16-29.61Q34.86-32.98 31.21-34.95 27.56-36.91 23.34-36.91L23.34-36.91Q19.95-36.91 16.85-35.6 13.75-34.28 11.51-32.04 9.28-29.81 7.96-26.71 6.64-23.61 6.64-20.21 6.64-16.82 7.96-13.72 9.28-10.62 11.51-8.39 13.75-6.15 16.85-4.83 19.95-3.52 23.34-3.52L23.34-3.52Q27.59-3.52 31.23-5.49 34.86-7.47 37.16-10.84L37.16-10.84 38.57-9.79Q36.04-6.08 32.02-3.92 28-1.76 23.34-1.76L23.34-1.76Q18.33-1.76 14.09-4.24 9.84-6.71 7.36-10.96 4.88-15.21 4.88-20.21 4.88-25.22 7.36-29.47 9.84-33.72 14.09-36.19 18.33-38.67 23.34-38.67L23.34-38.67Q28.03-38.67 32.06-36.49 36.08-34.3 38.62-30.57ZM41.5-32.57L41.5-32.57 40.04-31.62Q37.26-35.69 32.85-38.06 28.44-40.43 23.34-40.43L23.34-40.43Q19.24-40.43 15.49-38.83 11.74-37.23 9.03-34.52 6.32-31.81 4.72-28.06 3.13-24.32 3.13-20.21 3.13-16.11 4.72-12.37 6.32-8.62 9.03-5.91 11.74-3.2 15.49-1.6 19.24 0 23.34 0L23.34 0Q28.44 0 32.86-2.39 37.28-4.79 40.06-8.86L40.06-8.86 41.48-7.79Q38.45-3.39 33.67-0.82 28.88 1.76 23.34 1.76L23.34 1.76Q18.87 1.76 14.81 0.01 10.74-1.73 7.8-4.68 4.86-7.62 3.11-11.68 1.37-15.75 1.37-20.21 1.37-24.68 3.11-28.75 4.86-32.81 7.8-35.75 10.74-38.7 14.81-40.44 18.87-42.19 23.34-42.19L23.34-42.19Q28.91-42.19 33.69-39.6 38.48-37.01 41.5-32.57ZM80.05 0L80.05-35.16 81.81-35.16 81.81 0 80.05 0ZM44.87 0L44.87-35.16 46.63-35.16 46.63 0 44.87 0ZM76.54 0L76.54-35.16 78.29-35.16 78.29 0 76.54 0ZM73.02 0L73.02-35.16 74.78-35.16 74.78 0 73.02 0ZM69.5-22.85L69.5-35.16 71.26-35.16 71.26 0 69.5 0 69.5-14.06 57.18-14.06 57.18 0 55.42 0 55.42-35.16 57.18-35.16 57.18-22.85 69.5-22.85ZM51.9 0L51.9-35.16 53.66-35.16 53.66 0 51.9 0ZM48.39 0L48.39-35.16 50.14-35.16 50.14 0 48.39 0ZM57.18-15.82L69.5-15.82 69.5-17.58 57.18-17.58 57.18-15.82ZM57.18-19.34L69.5-19.34 69.5-21.09 57.18-21.09 57.18-19.34ZM109.47-15.58L109.47-15.58 109.47-35.16 111.23-35.16 111.23-15.58Q111.23-12.79 109.09-10.79 106.95-8.79 103.95-8.79 100.95-8.79 98.81-10.79 96.67-12.79 96.67-15.58L96.67-15.58 96.67-35.16 98.43-35.16 98.43-15.58Q98.43-13.5 100.06-12.02 101.68-10.55 103.95-10.55 106.22-10.55 107.84-12.02 109.47-13.5 109.47-15.58ZM112.98-15.58L112.98-15.58 112.98-35.16 114.74-35.16 114.74-15.58Q114.74-11.3 111.57-8.29 108.39-5.27 103.95-5.27 99.51-5.27 96.33-8.29 93.16-11.3 93.16-15.58L93.16-15.58 93.16-35.16 94.92-35.16 94.92-15.58Q94.92-12.04 97.57-9.53 100.21-7.03 103.95-7.03L103.95-7.03Q107.66-7.03 110.32-9.53 112.98-12.04 112.98-15.58ZM116.5-15.58L116.5-15.58 116.5-35.16 118.26-35.16 118.26-15.58Q118.26-11.84 116.33-8.65 114.4-5.47 111.1-3.61 107.81-1.76 103.95-1.76 100.09-1.76 96.8-3.61 93.5-5.47 91.57-8.65 89.64-11.84 89.64-15.58L89.64-15.58 89.64-35.16 91.4-35.16 91.4-15.58Q91.4-12.33 93.09-9.55 94.77-6.76 97.66-5.14 100.56-3.52 103.95-3.52 107.34-3.52 110.24-5.14 113.13-6.76 114.81-9.55 116.5-12.33 116.5-15.58ZM120.01-15.58L120.01-15.58 120.01-35.16 121.77-35.16 121.77-15.58Q121.77-12.06 120.36-8.85 118.94-5.64 116.55-3.32 114.16-1 110.86 0.38 107.56 1.76 103.95 1.76 100.34 1.76 97.04 0.38 93.75-1 91.35-3.32 88.96-5.64 87.54-8.85 86.13-12.06 86.13-15.58L86.13-15.58 86.13-35.16 87.89-35.16 87.89-15.58Q87.89-11.38 90.05-7.79 92.21-4.2 95.91-2.1 99.6 0 103.95 0 108.3 0 111.99-2.1 115.69-4.2 117.85-7.79 120.01-11.38 120.01-15.58ZM126.19 0L126.19-35.16 127.95-35.16 127.95 0 126.19 0ZM136.74 0L136.74-35.16 138.49-35.16 138.49-8.79 151.46-8.79 151.46-7.03 138.49-7.03 138.49-5.27 151.46-5.27 151.46-3.52 138.49-3.52 138.49-1.76 151.46-1.76 151.46 0 136.74 0ZM133.22 0L133.22-35.16 134.98-35.16 134.98 0 133.22 0ZM129.7 0L129.7-35.16 131.46-35.16 131.46 0 129.7 0ZM185.85-26.61L185.85-26.61 184.41-25.66Q183.1-27.61 180.98-28.75 178.87-29.88 176.41-29.88L176.41-29.88Q172.4-29.88 169.57-27.05 166.74-24.22 166.74-20.21 166.74-16.21 169.57-13.38 172.4-10.55 176.41-10.55L176.41-10.55Q178.87-10.55 180.98-11.69 183.1-12.84 184.41-14.79L184.41-14.79 185.83-13.77Q184.27-11.47 181.78-10.13 179.29-8.79 176.41-8.79L176.41-8.79Q174.09-8.79 171.97-9.69 169.86-10.6 168.32-12.13 166.79-13.67 165.88-15.78 164.98-17.9 164.98-20.21 164.98-22.53 165.88-24.65 166.79-26.76 168.32-28.3 169.86-29.83 171.97-30.74 174.09-31.64 176.41-31.64L176.41-31.64Q179.31-31.64 181.8-30.29 184.29-28.93 185.85-26.61ZM188.76-28.61L188.76-28.61 187.29-27.66Q185.49-30.3 182.62-31.85 179.75-33.4 176.41-33.4L176.41-33.4Q172.82-33.4 169.79-31.63 166.76-29.86 164.99-26.83 163.22-23.8 163.22-20.21 163.22-16.63 164.99-13.6 166.76-10.57 169.79-8.8 172.82-7.03 176.41-7.03L176.41-7.03Q179.75-7.03 182.63-8.59 185.51-10.16 187.32-12.82L187.32-12.82 188.76-11.82Q186.71-8.79 183.45-7.03 180.19-5.27 176.41-5.27L176.41-5.27Q172.35-5.27 168.91-7.28 165.47-9.28 163.47-12.72 161.46-16.16 161.46-20.21 161.46-24.27 163.47-27.71 165.47-31.15 168.91-33.15 172.35-35.16 176.41-35.16L176.41-35.16Q180.19-35.16 183.45-33.4 186.71-31.64 188.76-28.61ZM191.69-30.57L191.69-30.57 190.22-29.61Q187.93-32.98 184.28-34.95 180.63-36.91 176.41-36.91L176.41-36.91Q173.01-36.91 169.91-35.6 166.81-34.28 164.58-32.04 162.34-29.81 161.03-26.71 159.71-23.61 159.71-20.21 159.71-16.82 161.03-13.72 162.34-10.62 164.58-8.39 166.81-6.15 169.91-4.83 173.01-3.52 176.41-3.52L176.41-3.52Q180.65-3.52 184.29-5.49 187.93-7.47 190.22-10.84L190.22-10.84 191.64-9.79Q189.1-6.08 185.09-3.92 181.07-1.76 176.41-1.76L176.41-1.76Q171.4-1.76 167.15-4.24 162.91-6.71 160.43-10.96 157.95-15.21 157.95-20.21 157.95-25.22 160.43-29.47 162.91-33.72 167.15-36.19 171.4-38.67 176.41-38.67L176.41-38.67Q181.09-38.67 185.12-36.49 189.15-34.3 191.69-30.57ZM194.57-32.57L194.57-32.57 193.11-31.62Q190.32-35.69 185.92-38.06 181.51-40.43 176.41-40.43L176.41-40.43Q172.3-40.43 168.56-38.83 164.81-37.23 162.1-34.52 159.39-31.81 157.79-28.06 156.19-24.32 156.19-20.21 156.19-16.11 157.79-12.37 159.39-8.62 162.1-5.91 164.81-3.2 168.56-1.6 172.3 0 176.41 0L176.41 0Q181.51 0 185.93-2.39 190.35-4.79 193.13-8.86L193.13-8.86 194.55-7.79Q191.52-3.39 186.73-0.82 181.95 1.76 176.41 1.76L176.41 1.76Q171.94 1.76 167.87 0.01 163.81-1.73 160.87-4.68 157.92-7.62 156.18-11.68 154.43-15.75 154.43-20.21 154.43-24.68 156.18-28.75 157.92-32.81 160.87-35.75 163.81-38.7 167.87-40.44 171.94-42.19 176.41-42.19L176.41-42.19Q181.97-42.19 186.76-39.6 191.54-37.01 194.57-32.57ZM233.12 0L233.12-35.16 234.88-35.16 234.88 0 233.12 0ZM197.94 0L197.94-35.16 199.69-35.16 199.69 0 197.94 0ZM229.6 0L229.6-35.16 231.36-35.16 231.36 0 229.6 0ZM226.09 0L226.09-35.16 227.84-35.16 227.84 0 226.09 0ZM222.57-22.85L222.57-35.16 224.33-35.16 224.33 0 222.57 0 222.57-14.06 210.24-14.06 210.24 0 208.48 0 208.48-35.16 210.24-35.16 210.24-22.85 222.57-22.85ZM204.97 0L204.97-35.16 206.73-35.16 206.73 0 204.97 0ZM201.45 0L201.45-35.16 203.21-35.16 203.21 0 201.45 0ZM210.24-15.82L222.57-15.82 222.57-17.58 210.24-17.58 210.24-15.82ZM210.24-19.34L222.57-19.34 222.57-21.09 210.24-21.09 210.24-19.34ZM262.53-15.58L262.53-15.58 262.53-35.16 264.29-35.16 264.29-15.58Q264.29-12.79 262.16-10.79 260.02-8.79 257.02-8.79 254.01-8.79 251.88-10.79 249.74-12.79 249.74-15.58L249.74-15.58 249.74-35.16 251.5-35.16 251.5-15.58Q251.5-13.5 253.12-12.02 254.75-10.55 257.02-10.55 259.29-10.55 260.91-12.02 262.53-13.5 262.53-15.58ZM266.05-15.58L266.05-15.58 266.05-35.16 267.81-35.16 267.81-15.58Q267.81-11.3 264.63-8.29 261.46-5.27 257.02-5.27 252.57-5.27 249.4-8.29 246.23-11.3 246.23-15.58L246.23-15.58 246.23-35.16 247.98-35.16 247.98-15.58Q247.98-12.04 250.63-9.53 253.28-7.03 257.02-7.03L257.02-7.03Q260.73-7.03 263.39-9.53 266.05-12.04 266.05-15.58ZM269.57-15.58L269.57-15.58 269.57-35.16 271.32-35.16 271.32-15.58Q271.32-11.84 269.39-8.65 267.47-5.47 264.17-3.61 260.87-1.76 257.02-1.76 253.16-1.76 249.86-3.61 246.57-5.47 244.64-8.65 242.71-11.84 242.71-15.58L242.71-15.58 242.71-35.16 244.47-35.16 244.47-15.58Q244.47-12.33 246.15-9.55 247.84-6.76 250.73-5.14 253.62-3.52 257.02-3.52 260.41-3.52 263.3-5.14 266.2-6.76 267.88-9.55 269.57-12.33 269.57-15.58ZM273.08-15.58L273.08-15.58 273.08-35.16 274.84-35.16 274.84-15.58Q274.84-12.06 273.42-8.85 272.01-5.64 269.61-3.32 267.22-1 263.93 0.38 260.63 1.76 257.02 1.76 253.4 1.76 250.11 0.38 246.81-1 244.42-3.32 242.03-5.64 240.61-8.85 239.19-12.06 239.19-15.58L239.19-15.58 239.19-35.16 240.95-35.16 240.95-15.58Q240.95-11.38 243.11-7.79 245.27-4.2 248.97-2.1 252.67 0 257.02 0 261.36 0 265.06-2.1 268.76-4.2 270.92-7.79 273.08-11.38 273.08-15.58ZM279.25 0L279.25-35.16 281.01-35.16 281.01 0 279.25 0ZM289.8 0L289.8-35.16 291.56-35.16 291.56-8.79 304.52-8.79 304.52-7.03 291.56-7.03 291.56-5.27 304.52-5.27 304.52-3.52 291.56-3.52 291.56-1.76 304.52-1.76 304.52 0 289.8 0ZM286.29 0L286.29-35.16 288.04-35.16 288.04 0 286.29 0ZM282.77 0L282.77-35.16 284.53-35.16 284.53 0 282.77 0Z" opacity="1" transform="matrix(1,0,0,1,0,0)" fill="#001f3f" class="wordmark-text-0" data-fill-palette-color="primary" id="text-0"></path></svg></g></svg></g></svg></g></svg></g><g transform="matrix(1,0,0,1,72.571781158038,0)"><svg viewBox="0 0 250.376437683924 250.376437683924" height="250.376437683924" width="250.376437683924"><g><svg></svg></g><g id="icon-0"><svg viewBox="0 0 250.376437683924 250.376437683924" height="250.376437683924" width="250.376437683924"><g><path d="M0 125.188c0-69.14 56.049-125.188 125.188-125.188 69.14 0 125.188 56.049 125.188 125.188 0 69.14-56.049 125.188-125.188 125.188-69.14 0-125.188-56.049-125.188-125.188zM125.188 245.206c66.284 0 120.018-53.734 120.018-120.018 0-66.284-53.734-120.018-120.018-120.018-66.284 0-120.018 53.734-120.018 120.018 0 66.284 53.734 120.018 120.018 120.018z" data-fill-palette-color="accent" fill="#001f3f" stroke="transparent"></path></g><g transform="matrix(1,0,0,1,49.715269895262395,66.75439894154934)"><svg viewBox="0 0 150.9458978933992 116.86763980082532" height="116.86763980082532" width="150.9458978933992"><g><svg xmlns="http://www.w3.org/2000/svg" xmlns:xlink="http://www.w3.org/1999/xlink" version="1.1" x="0" y="0" viewBox="1 7.997412524795583 62 48.002587475204415" style="enable-background:new 0 0 64 64;" xml:space="preserve" height="116.86763980082532" width="150.9458978933992" class="icon-cg-0" data-fill-palette-color="accent" id="cg-0"><g fill="#001f3f" data-fill-palette-color="accent"><path d="M60.444 42C60.788 41.409 61 40.732 61 40c0-1.874-1.3-3.439-3.041-3.871-0.321-3.693-2.664-6.888-6.158-8.286L46 25.523l0 2.314c0 0.748-0.247 1.449-0.671 2.019l-5.983-6.838C38.779 22.372 37.96 22 37.1 22c-1.028 0-1.966 0.519-2.517 1.385l-3.109-2.487 3.249-1.979c0.618-0.377 1.047-0.969 1.209-1.667 0.161-0.692 0.039-1.405-0.344-2.007-0.267-0.421-0.647-0.758-1.1-0.976L22.067 8.283c-0.877-0.423-1.895-0.374-2.725 0.133-0.838 0.512-1.339 1.397-1.339 2.37l-0.001 4.827-7.425-2.476C10.298 13.046 10.01 13 9.721 13 8.221 13 7 14.221 7 15.721v0.201c0 0.08 0.003 0.161 0.011 0.247l0.98 10.773-5.588 8.976C2.139 36.342 2 36.83 2 37.329 2 37.562 2.04 37.784 2.096 38H1v3.236l5 10V56h51v-4.525c3.49-1.239 6-4.565 6-8.475v-1H60.444zM47.963 28.462l3.094 1.238c2.688 1.074 4.512 3.487 4.868 6.3H51v2h6c1.103 0 2 0.897 2 2s-0.897 2-2 2h-6-4-6c-1.103 0-2-0.897-2-2s0.897-2 2-2h6v-2h-4.985c0.065-1.392 0.969-2.607 2.301-3.052C46.318 32.281 47.724 30.522 47.963 28.462zM37.84 24.336l5.868 6.706c-0.008 0.003-0.016 0.008-0.024 0.01-2.193 0.73-3.672 2.774-3.68 5.086v0.003c-1.044 0.27-1.916 0.949-2.447 1.859h-3.142l0.676-0.676c0.586-0.588 0.91-1.368 0.91-2.197 0-1.041-0.517-2.007-1.383-2.584l-2.401-1.601 4.049-6.479C36.597 23.932 37.428 23.864 37.84 24.336zM21.597 35.917l-4.672-7.505 6.541-2.18c0.294-0.098 0.612-0.076 0.89 0.063C24.753 26.495 25 26.895 25 27.339v0.466c0 0.069-0.006 0.139-0.019 0.209L23.165 38h-1.261C21.961 37.784 22 37.562 22 37.329 22 36.83 21.861 36.342 21.597 35.917zM26.711 29.676l6.796 4.531c0.309 0.206 0.493 0.55 0.493 0.92 0 0.296-0.115 0.574-0.324 0.783L31.586 38h-6.388L26.711 29.676zM33.513 25.091l-2.963 4.741L27 27.465v-0.126c0-1.147-0.61-2.178-1.598-2.742l4.254-2.591L33.513 25.091zM20.003 10.786c0-0.27 0.143-0.518 0.38-0.662C20.518 10.042 20.673 10 20.828 10c0.127 0 0.255 0.028 0.372 0.084L33.62 16.07c0.116 0.057 0.213 0.142 0.28 0.247 0.092 0.146 0.122 0.316 0.083 0.481-0.04 0.171-0.147 0.318-0.302 0.412l-12.613 7.685c-0.331 0.201-0.766 0.105-0.969-0.215C20.034 24.578 20 24.461 20 24.341L20.003 10.786zM9 15.721c0-0.475 0.506-0.826 0.949-0.685l8.053 2.685L18 24.341c0 0.502 0.143 0.991 0.412 1.413 0.01 0.016 0.026 0.027 0.036 0.043l-2.609 0.87-1.461-2.348C13.862 23.493 12.974 23 12 23c-0.906 0-1.726 0.44-2.253 1.167L9 15.922V15.721zM4 37.329c0-0.126 0.035-0.249 0.102-0.355l7.219-11.596C11.468 25.142 11.722 25 12 25s0.532 0.142 0.679 0.377l7.219 11.596C19.965 37.08 20 37.203 20 37.329 20 37.699 19.699 38 19.329 38H4.671C4.301 38 4 37.699 4 37.329zM3 40h1.671 14.658H37c0 0.732 0.212 1.409 0.556 2H35v1c0 2.826 1.312 5.349 3.356 7H7.618L3 40.764V40zM8 52h33v2H8V52zM55 54H43v-2.059C43.329 51.978 43.662 52 44 52h10c0.338 0 0.671-0.022 1-0.059V54zM54 50H44c-3.521 0-6.442-2.612-6.929-6H41h6 4 6 3.929C60.442 47.388 57.521 50 54 50z" fill="#001f3f" data-fill-palette-color="accent"></path><rect x="14" y="34" width="2" height="2" fill="#001f3f" data-fill-palette-color="accent"></rect><rect x="22" y="13" width="2" height="2" fill="#001f3f" data-fill-palette-color="accent"></rect><rect x="26" y="17" width="2" height="2" fill="#001f3f" data-fill-palette-color="accent"></rect><rect x="29" y="25" width="2" height="2" fill="#001f3f" data-fill-palette-color="accent"></rect><rect x="11" y="18" width="2" height="2" fill="#001f3f" data-fill-palette-color="accent"></rect><rect x="14" y="21" width="2" height="2" fill="#001f3f" data-fill-palette-color="accent"></rect><rect x="11" y="28" width="2" height="2" fill="#001f3f" data-fill-palette-color="accent"></rect><rect x="20" y="29" width="2" height="2" fill="#001f3f" data-fill-palette-color="accent"></rect><rect x="28" y="34" width="2" height="2" fill="#001f3f" data-fill-palette-color="accent"></rect><rect x="35" y="28" width="2" height="2" fill="#001f3f" data-fill-palette-color="accent"></rect><rect x="37" y="33" width="2" height="2" fill="#001f3f" data-fill-palette-color="accent"></rect><rect x="8" y="34" width="2" height="2" fill="#001f3f" data-fill-palette-color="accent"></rect></g></svg></g></svg></g></svg></g></svg></g><g></g></svg></g><defs></defs></svg><rect width="292.0533259484051" height="247.2" fill="none" stroke="none" visibility="hidden"></rect></g></svg></g></svg>